<?xml version="1.0" encoding="UTF-8"?>
<svg width="980px" height="605px" viewBox="0 0 980 605" version="1.1" xmlns="http://www.w3.org/2000/svg" xmlns:xlink="http://www.w3.org/1999/xlink">
    <!-- Generator: Sketch 49 (51002) - http://www.bohemiancoding.com/sketch -->
    <title>Oval 1</title>
    <desc>Created with Sketch.</desc>
    <defs></defs>
    <g id="Page-1" stroke="none" stroke-width="1" fill="none" fill-rule="evenodd">
        <g id="Group-2" transform="translate(363.000000, 156.000000)">
            <path d="M127.299363,4.04145188 L3.5,75.5170474 L3.5,218.468239 L127.299363,289.943834 L251.098726,218.468239 L251.098726,75.5170474 L127.299363,4.04145188 Z" id="Polygon" stroke="#343334" stroke-width="7"></path>
            <g id="Group" transform="translate(24.000000, 115.000000)" fill="#343334">
                <path d="M89.020907,0.602923373 C84.7186664,0.602923373 80.5917328,1.31696573 76.7803518,2.58866076 C82.0210006,5.54154486 86.4181133,9.57269465 89.5901392,14.375504 L117.02672,14.375504 C120.167809,9.61179207 124.52986,5.59710435 129.702449,2.6668556 C125.835382,1.33548556 121.640388,0.602923373 117.249463,0.602923373 L89.020907,0.602923373 L89.020907,0.602923373 Z" id="Shape"></path>
                <path d="M91.852631,32.2183319 L91.852631,32.2183319 C91.8340691,14.7788248 76.085311,0.600865614 56.7417277,0.600865614 L35.2882728,0.600865614 C16.1468082,0.600865614 0.534170816,14.4907385 0.185619202,31.6586215 L0.19593138,32.2368518 C0.204181123,49.6743011 15.9529392,63.8543181 35.298585,63.8543181 L56.7499774,63.8543181 C61.0522181,63.8543181 65.1709019,63.1402757 68.9884702,61.8665229 C63.7478214,58.9342164 59.3403965,54.882489 56.1807452,50.0796796 L35.298585,50.0796796 C24.1903069,50.0796796 15.0454676,42.9042742 14.0781853,33.7986908 L13.991563,33.7986908 L13.991563,32.2162742 C14.0018752,22.3781286 23.5633265,14.3734463 35.2882728,14.3734463 L56.7396653,14.3734463 C67.8479433,14.3734463 77.0030949,21.5303319 77.960065,30.6544351 L78.0466873,30.6544351 L78.0569994,32.2162742 L78.0569994,32.2368518 C78.0466873,35.6115764 76.9061604,38.7558321 74.9530339,41.437092 C78.0466873,44.544308 82.6582932,46.5876627 87.8597558,46.8592869 C90.3140541,42.6347077 91.7556966,37.868938 91.852631,32.7965622 L91.852631,32.2183319 L91.852631,32.2183319 Z" id="Shape"></path>
                <path d="M196.19331,9.93897574 C189.541955,3.9200308 180.71473,0.602923373 171.318274,0.602923373 L149.866882,0.602923373 C130.523298,0.602923373 114.77454,14.7808826 114.764228,32.2203897 L114.764228,32.2203897 L114.764228,32.3376819 C114.793102,37.5829095 116.242994,42.5030112 118.765353,46.8428248 C123.937941,46.4950635 128.491799,44.3735141 131.517392,41.2477782 C129.6612,38.5870959 128.568109,35.5189773 128.568109,32.2409673 L128.568109,32.2203897 C128.578421,22.3822441 138.139873,14.3775618 149.864819,14.3775618 L171.316212,14.3775618 C183.05147,14.3775618 192.612921,22.3843019 192.623234,32.2203897 C192.623234,42.0791128 183.061782,50.0837951 171.316212,50.0837951 L150.108186,50.0837951 C146.967097,54.8475071 142.605046,58.8621948 137.42627,61.7924436 C141.293337,63.1217559 145.488331,63.8563758 149.866882,63.8563758 L171.318274,63.8563758 C190.661857,63.8563758 206.410615,49.6763589 206.429177,32.2389095 C206.43124,23.8288487 202.795166,15.9188233 196.19331,9.93897574 L196.19331,9.93897574 Z" id="Shape"></path>
                <path d="M152.360366,32.2183319 C152.360366,26.9525268 150.910474,21.9953854 148.367491,17.6144166 C143.194902,17.9621779 138.632795,20.0837274 135.605139,23.2094632 C137.461331,25.8722033 138.54411,28.9403219 138.554422,32.2183319 L138.554422,32.2183319 C138.554422,42.0770551 129.003283,50.0817374 117.257713,50.0817374 L89.020907,50.0817374 C77.2856485,50.0817374 67.7241972,42.0749973 67.7241972,32.2183319 L67.7241972,32.2183319 C67.7241972,28.8436072 68.8750362,25.6993516 70.8178505,23.0160339 C67.7241972,19.9293955 63.1125912,17.8839831 57.9214409,17.6144166 C55.370208,21.9748079 53.9203158,26.9525268 53.9203158,32.2183319 L53.9203158,32.2183319 C53.9203158,49.657839 69.6690739,63.8563758 89.0312192,63.8563758 L117.259775,63.8563758 C136.611608,63.8563758 152.360366,49.6598968 152.360366,32.2183319 L152.360366,32.2183319 L152.360366,32.2183319 Z" id="Shape"></path>
            </g>
        </g>
    </g>
</svg>